<svg xmlns="http://www.w3.org/2000/svg" xmlns:xlink="http://www.w3.org/1999/xlink" width="500" zoomAndPan="magnify" viewBox="0 0 375 225" height="300" preserveAspectRatio="xMidYMid meet" version="1.0"><defs><g/></defs><g fill="#ffffff" fill-opacity="1"><g transform="translate(33.184543, 201.526604)"><g><path d="M 49.46875 -31.9375 C 50.25 -33.800781 51.09375 -34.734375 52 -34.734375 C 52.914062 -34.734375 53.210938 -33.800781 52.890625 -31.9375 C 51.390625 -27.269531 49.585938 -22.800781 47.484375 -18.53125 C 45.378906 -14.257812 42.523438 -10.4375 38.921875 -7.0625 C 36.179688 -4.320312 32.914062 -2.5625 29.125 -1.78125 C 23.957031 -1.050781 19.695312 -1.664062 16.34375 -3.625 C 12.988281 -5.59375 10.328125 -8.414062 8.359375 -12.09375 C 6.390625 -15.769531 4.925781 -19.789062 3.96875 -24.15625 C 3.007812 -28.519531 2.394531 -32.753906 2.125 -36.859375 C 1.394531 -44.628906 0.859375 -54.835938 0.515625 -67.484375 C 0.171875 -80.140625 0.296875 -93.523438 0.890625 -107.640625 C 1.484375 -121.753906 2.863281 -134.84375 5.03125 -146.90625 C 7.207031 -158.96875 10.394531 -168.3125 14.59375 -174.9375 C 17.007812 -178.175781 19.828125 -179.816406 23.046875 -179.859375 C 26.273438 -179.910156 29.144531 -178.425781 31.65625 -175.40625 C 33.34375 -173.082031 34.617188 -170.617188 35.484375 -168.015625 C 36.359375 -165.410156 36.929688 -162.757812 37.203125 -160.0625 C 38.117188 -150.789062 38.003906 -141.003906 36.859375 -130.703125 C 35.722656 -120.398438 33.921875 -109.398438 31.453125 -97.703125 C 28.984375 -86.015625 26.035156 -75.710938 22.609375 -66.796875 C 19.179688 -57.890625 16.328125 -50.835938 14.046875 -45.640625 C 12.816406 -43.535156 12.359375 -40.359375 12.671875 -36.109375 C 13.085938 -31.492188 13.96875 -26.671875 15.3125 -21.640625 C 16.65625 -16.617188 18.539062 -12.648438 20.96875 -9.734375 C 23.25 -7.304688 25.804688 -6.550781 28.640625 -7.46875 C 31.472656 -8.382812 34.289062 -10.300781 37.09375 -13.21875 C 39.90625 -16.144531 42.382812 -19.332031 44.53125 -22.78125 C 46.6875 -26.226562 48.332031 -29.28125 49.46875 -31.9375 Z M 12.953125 -102.03125 C 12.679688 -99.007812 12.414062 -94.445312 12.15625 -88.34375 C 11.90625 -82.25 11.664062 -76.050781 11.4375 -69.75 C 11.257812 -62.71875 11.054688 -57.238281 10.828125 -53.3125 C 13.066406 -58.332031 15.671875 -65.640625 18.640625 -75.234375 C 21.609375 -84.828125 24.3125 -96.132812 26.75 -109.15625 C 29.195312 -122.175781 30.785156 -136.265625 31.515625 -151.421875 C 31.109375 -160.285156 30.046875 -166.289062 28.328125 -169.4375 C 26.617188 -172.59375 24.757812 -172.867188 22.75 -170.265625 C 20.738281 -167.660156 19.140625 -162.179688 17.953125 -153.828125 C 16.128906 -139.984375 14.710938 -126.117188 13.703125 -112.234375 C 13.429688 -108.804688 13.179688 -105.40625 12.953125 -102.03125 Z M 12.953125 -102.03125 "/></g></g></g><g fill="#ffffff" fill-opacity="1"><g transform="translate(81.904201, 201.526604)"><g><path d="M 50.640625 -35.828125 C 54.066406 -36.742188 55.445312 -36.695312 54.78125 -35.6875 C 54.113281 -34.6875 51.882812 -33.6875 48.09375 -32.6875 C 45.269531 -31.957031 42.828125 -31.59375 40.765625 -31.59375 C 38.710938 -31.59375 36.84375 -32.253906 35.15625 -33.578125 C 34.738281 -32.160156 34.328125 -30.789062 33.921875 -29.46875 C 33.097656 -26.769531 32.296875 -24.210938 31.515625 -21.796875 C 30.515625 -18.273438 29.054688 -14.960938 27.140625 -11.859375 C 25.535156 -9.253906 23.421875 -7.492188 20.796875 -6.578125 C 18.171875 -5.660156 15.597656 -5.679688 13.078125 -6.640625 C 10.566406 -7.597656 8.515625 -9.539062 6.921875 -12.46875 C 4.910156 -16.675781 3.5625 -21.082031 2.875 -25.6875 C 1.363281 -32.539062 0.453125 -39.488281 0.140625 -46.53125 C 0.046875 -48.125 0.09375 -49.675781 0.28125 -51.1875 C 0.59375 -53.195312 1.847656 -54.203125 4.046875 -54.203125 C 5.691406 -54.109375 6.679688 -53.132812 7.015625 -51.28125 C 7.359375 -49.4375 7.53125 -47.554688 7.53125 -45.640625 C 7.53125 -44.898438 7.578125 -44.28125 7.671875 -43.78125 C 7.671875 -43.09375 7.898438 -40.816406 8.359375 -36.953125 C 8.816406 -33.097656 9.5 -28.976562 10.40625 -24.59375 C 11.320312 -20.207031 12.429688 -16.859375 13.734375 -14.546875 C 15.035156 -12.242188 16.578125 -12.304688 18.359375 -14.734375 C 20.097656 -17.335938 21.3125 -20.144531 22 -23.15625 C 23.726562 -29.1875 25.347656 -35.21875 26.859375 -41.25 C 27.453125 -44.082031 28.59375 -46.640625 30.28125 -48.921875 C 32.113281 -51.160156 34.488281 -51.707031 37.40625 -50.5625 C 38.09375 -50.382812 38.640625 -50.039062 39.046875 -49.53125 C 39.460938 -49.03125 39.601562 -48.484375 39.46875 -47.890625 C 39.375 -47.160156 39.238281 -46.410156 39.0625 -45.640625 C 38.550781 -44.128906 38.171875 -42.617188 37.921875 -41.109375 C 37.671875 -39.597656 37.753906 -38.4375 38.171875 -37.625 C 38.847656 -36.613281 40.488281 -35.910156 43.09375 -35.515625 C 45.695312 -35.128906 48.210938 -35.234375 50.640625 -35.828125 Z M 50.640625 -35.828125 "/></g></g></g><g fill="#ffffff" fill-opacity="1"><g transform="translate(132.684897, 201.526604)"><g><path d="M 56.65625 -26.375 C 60.175781 -31.945312 62.265625 -35.488281 62.921875 -37 C 63.585938 -38.507812 64.113281 -38.441406 64.5 -36.796875 C 64.894531 -35.148438 63.765625 -31.4375 61.109375 -25.65625 C 58.460938 -19.882812 55.175781 -15.429688 51.25 -12.296875 C 47.320312 -9.171875 43.65625 -8.019531 40.25 -8.84375 C 36.851562 -9.664062 34.421875 -12.03125 32.953125 -15.9375 C 31.492188 -19.84375 31.0625 -24.765625 31.65625 -30.703125 C 31.65625 -30.785156 31.703125 -31.035156 31.796875 -31.453125 C 31.890625 -32.453125 32.0625 -33.929688 32.3125 -35.890625 C 32.5625 -37.859375 32.742188 -39.894531 32.859375 -42 C 32.972656 -44.101562 32.898438 -45.835938 32.640625 -47.203125 C 32.390625 -48.578125 31.765625 -49.0625 30.765625 -48.65625 C 28.347656 -47.320312 25.984375 -44.722656 23.671875 -40.859375 C 21.367188 -37.003906 19.28125 -32.960938 17.40625 -28.734375 C 15.53125 -24.515625 14.207031 -21.101562 13.4375 -18.5 C 13.113281 -17.675781 12.816406 -16.804688 12.546875 -15.890625 C 12.128906 -14.703125 11.671875 -13.515625 11.171875 -12.328125 C 9.847656 -8.898438 7.539062 -7.578125 4.25 -8.359375 C 2.414062 -8.765625 1.34375 -9.882812 1.03125 -11.71875 C 0.9375 -13.132812 0.890625 -14.484375 0.890625 -15.765625 C 0.890625 -16.585938 0.84375 -17.335938 0.75 -18.015625 C 0.570312 -28.160156 0.320312 -38.375 0 -48.65625 C 0.09375 -49.84375 0.617188 -50.660156 1.578125 -51.109375 C 2.535156 -51.566406 3.675781 -51.796875 5 -51.796875 C 6.007812 -51.796875 6.957031 -51.519531 7.84375 -50.96875 C 8.738281 -50.425781 9.300781 -49.285156 9.53125 -47.546875 C 9.613281 -46.953125 9.65625 -46.359375 9.65625 -45.765625 C 9.75 -45.453125 9.796875 -45.15625 9.796875 -44.875 C 9.984375 -43.457031 10.078125 -42.25 10.078125 -41.25 C 10.078125 -39.738281 10.175781 -38.707031 10.375 -38.15625 C 10.582031 -37.613281 11.015625 -37.640625 11.671875 -38.234375 C 12.335938 -38.828125 13.425781 -40.242188 14.9375 -42.484375 C 17.539062 -46.503906 20.757812 -49.90625 24.59375 -52.6875 C 28.113281 -55.195312 31.972656 -56.25 36.171875 -55.84375 C 39.785156 -55.476562 42.207031 -53.582031 43.4375 -50.15625 C 43.9375 -48.414062 44.1875 -46.664062 44.1875 -44.90625 C 44.1875 -43.15625 44.078125 -41.390625 43.859375 -39.609375 C 43.765625 -37.773438 43.625 -35.898438 43.4375 -33.984375 C 43.300781 -33.390625 43.1875 -32.796875 43.09375 -32.203125 C 42.5 -25.671875 42.703125 -21.296875 43.703125 -19.078125 C 44.710938 -16.867188 46.242188 -16.140625 48.296875 -16.890625 C 50.359375 -17.640625 53.144531 -20.800781 56.65625 -26.375 Z M 56.65625 -26.375 "/></g></g></g><g fill="#ffffff" fill-opacity="1"><g transform="translate(192.98151, 201.526604)"><g><path d="M 107.5 -33.4375 C 107.914062 -34.21875 108.546875 -34.628906 109.390625 -34.671875 C 110.234375 -34.710938 110.953125 -34.1875 111.546875 -33.09375 C 111.773438 -32.820312 111.554688 -32.054688 110.890625 -30.796875 C 110.234375 -29.546875 109.351562 -28.128906 108.25 -26.546875 C 107.15625 -24.972656 106.109375 -23.535156 105.109375 -22.234375 C 104.109375 -20.929688 103.398438 -20.078125 102.984375 -19.671875 C 98.460938 -14.640625 93.914062 -10.945312 89.34375 -8.59375 C 84.78125 -6.25 79.828125 -5.75 74.484375 -7.09375 C 69.140625 -8.4375 63.15625 -12.238281 56.53125 -18.5 C 55.519531 -19.59375 54.515625 -20.691406 53.515625 -21.796875 C 53.242188 -22.109375 52.992188 -22.40625 52.765625 -22.6875 C 51.660156 -23.914062 50.445312 -24.070312 49.125 -23.15625 C 47.757812 -22.15625 46.367188 -21.148438 44.953125 -20.140625 C 43.710938 -19.234375 42.457031 -18.390625 41.1875 -17.609375 C 36.9375 -14.679688 32.457031 -12.210938 27.75 -10.203125 C 22.726562 -7.972656 17.453125 -7.109375 11.921875 -7.609375 C 3.285156 -8.609375 -1.1875 -13.378906 -1.5 -21.921875 C -1.59375 -27.953125 -0.304688 -33.351562 2.359375 -38.125 C 5.035156 -42.90625 8.757812 -46.425781 13.53125 -48.6875 C 18.300781 -50.945312 23.796875 -51.390625 30.015625 -50.015625 C 30.703125 -49.878906 31.613281 -49.675781 32.75 -49.40625 C 33.4375 -49.175781 34.28125 -48.96875 35.28125 -48.78125 C 34.6875 -50.195312 34.140625 -51.453125 33.640625 -52.546875 C 32.722656 -54.378906 31.925781 -56.050781 31.25 -57.5625 C 27.09375 -66.101562 23.710938 -75.863281 21.109375 -86.84375 C 18.503906 -97.832031 17.222656 -109.101562 17.265625 -120.65625 C 17.304688 -132.21875 19.234375 -142.976562 23.046875 -152.9375 C 26.867188 -162.894531 33.210938 -171.09375 42.078125 -177.53125 C 47.691406 -181.320312 53.488281 -183.378906 59.46875 -183.703125 C 65.457031 -184.023438 71.113281 -182.722656 76.4375 -179.796875 C 81.757812 -176.867188 86.085938 -172.484375 89.421875 -166.640625 C 93.710938 -158.597656 96.359375 -150.125 97.359375 -141.21875 C 99.191406 -126.832031 98.894531 -113.398438 96.46875 -100.921875 C 94.050781 -88.453125 89.78125 -76.664062 83.65625 -65.5625 C 77.539062 -54.46875 69.753906 -43.691406 60.296875 -33.234375 C 59.378906 -32.222656 58.898438 -31.421875 58.859375 -30.828125 C 58.816406 -30.234375 59.25 -29.390625 60.15625 -28.296875 C 62.070312 -25.785156 64.160156 -23.34375 66.421875 -20.96875 C 68.691406 -18.59375 71.21875 -16.601562 74 -15 C 77.925781 -13.3125 82.128906 -13.289062 86.609375 -14.9375 C 91.085938 -16.582031 95.234375 -19.140625 99.046875 -22.609375 C 102.859375 -26.078125 105.675781 -29.6875 107.5 -33.4375 Z M 40.296875 -27.40625 C 41.484375 -28.414062 41.570312 -29.554688 40.5625 -30.828125 C 39.96875 -31.566406 39.375 -32.320312 38.78125 -33.09375 C 37.132812 -35.101562 35.257812 -37.171875 33.15625 -39.296875 C 31.0625 -41.421875 28.882812 -43.03125 26.625 -44.125 C 24.363281 -45.21875 22.066406 -45.3125 19.734375 -44.40625 C 16.535156 -42.894531 13.90625 -40.234375 11.84375 -36.421875 C 9.789062 -32.609375 8.582031 -28.691406 8.21875 -24.671875 C 7.851562 -20.648438 8.628906 -17.585938 10.546875 -15.484375 C 12.472656 -13.378906 15.738281 -13.175781 20.34375 -14.875 C 27.613281 -18.070312 34.265625 -22.25 40.296875 -27.40625 Z M 55.5 -42.28125 C 65.132812 -53.65625 72.335938 -64.84375 77.109375 -75.84375 C 81.890625 -86.851562 85.125 -99.738281 86.8125 -114.5 C 87.3125 -118.101562 87.539062 -122.828125 87.5 -128.671875 C 87.457031 -134.523438 86.929688 -140.632812 85.921875 -147 C 84.921875 -153.375 83.117188 -159.175781 80.515625 -164.40625 C 77.910156 -169.644531 74.265625 -173.414062 69.578125 -175.71875 C 64.898438 -178.019531 58.90625 -178.007812 51.59375 -175.6875 C 43.550781 -170.976562 37.585938 -164.726562 33.703125 -156.9375 C 29.828125 -149.15625 27.613281 -140.488281 27.0625 -130.9375 C 26.519531 -121.394531 27.148438 -111.644531 28.953125 -101.6875 C 30.753906 -91.726562 33.265625 -82.28125 36.484375 -73.34375 C 39.703125 -64.414062 43.164062 -56.640625 46.875 -50.015625 C 47.28125 -49.191406 47.6875 -48.367188 48.09375 -47.546875 C 49.195312 -44.859375 50.796875 -42.414062 52.890625 -40.21875 C 53.210938 -40.488281 53.535156 -40.738281 53.859375 -40.96875 C 54.453125 -41.332031 55 -41.769531 55.5 -42.28125 Z M 55.5 -42.28125 "/></g></g></g><g fill="#ffffff" fill-opacity="1"><g transform="translate(299.870935, 201.526604)"><g><path d="M 43.71875 -32.828125 C 44.582031 -34.609375 45.175781 -35.425781 45.5 -35.28125 C 45.820312 -35.144531 45.898438 -34.425781 45.734375 -33.125 C 45.578125 -31.820312 45.289062 -30.347656 44.875 -28.703125 C 44.28125 -26.191406 43.253906 -23.28125 41.796875 -19.96875 C 40.335938 -16.65625 38.71875 -13.65625 36.9375 -10.96875 C 34.28125 -7.21875 31 -4.394531 27.09375 -2.5 C 23.1875 -0.601562 19.644531 -0.132812 16.46875 -1.09375 C 13.300781 -2.050781 11.46875 -5.046875 10.96875 -10.078125 C 10.875 -14.273438 11.238281 -18.882812 12.0625 -23.90625 C 12.332031 -26.007812 12.628906 -28.066406 12.953125 -30.078125 C 12.953125 -30.804688 12.769531 -31.363281 12.40625 -31.75 C 12.039062 -32.144531 11.5625 -32.296875 10.96875 -32.203125 C 10.550781 -32.203125 10.09375 -32.203125 9.59375 -32.203125 C 7.082031 -31.796875 4.523438 -31.84375 1.921875 -32.34375 C -1.179688 -33.257812 -2.984375 -34.800781 -3.484375 -36.96875 C -3.992188 -39.132812 -3.953125 -41.976562 -3.359375 -45.5 C -3.035156 -48.007812 -2.097656 -49.890625 -0.546875 -51.140625 C 1.003906 -52.398438 2.832031 -52.914062 4.9375 -52.6875 C 7.851562 -52.414062 9.265625 -51.296875 9.171875 -49.328125 C 9.085938 -47.367188 8.539062 -45.269531 7.53125 -43.03125 C 6.625 -41.15625 6.144531 -39.585938 6.09375 -38.328125 C 6.050781 -37.078125 7.125 -36.632812 9.3125 -37 C 9.820312 -37.132812 10.375 -37.296875 10.96875 -37.484375 C 11.789062 -37.796875 12.722656 -38.078125 13.765625 -38.328125 C 14.816406 -38.585938 16.191406 -38.648438 17.890625 -38.515625 C 19.898438 -38.421875 21.234375 -37.492188 21.890625 -35.734375 C 22.554688 -33.972656 22.84375 -31.765625 22.75 -29.109375 C 22.65625 -26.460938 22.40625 -23.769531 22 -21.03125 C 21.488281 -17.601562 21.234375 -14.664062 21.234375 -12.21875 C 21.234375 -9.78125 21.941406 -8.359375 23.359375 -7.953125 C 25.234375 -7.441406 28.03125 -9.140625 31.75 -13.046875 C 35.476562 -16.953125 39.46875 -23.546875 43.71875 -32.828125 Z M 43.71875 -32.828125 "/></g></g></g></svg>